# xmcd
#
# Track frame offsets:
#	150
#	19535
#	41366
#	58565
#	74119
#	92885
#	113535
#	131622
#	144437
#	157044
#	177289
#	194358
#
# Disc length: 2797 seconds
#
# Revision: 0
# Processed by: cddbd v1.5.1PL0 Copyright (c) Steve Scherf et al.
# Submitted via: EasyCDDAExtractor 8.2.3.1
#
DISCID=a40aeb0c
DTITLE=Various Artist - CDXMAS Volume 1019A
DYEAR=2005
DGENRE=Country
TTITLE0=Lonestar - Christmas Lights
TTITLE1=Sara Evans - Come All Ye Faithful
TTITLE2=Martina McBride - O Holy Night
TTITLE3=Martina McBride - Silent Night
TTITLE4=Josh Gracin - Please Come Home For Christmas
TTITLE5=Josh Gracin, Kassidy Osborn - The Virgin's Lullaby
TTITLE6=Josh Gracin - O Holy Night
TTITLE7=Dean Miller - Daddy's Drinking Up Our Christmas
TTITLE8=Bobby Helms - Jinmgle Bell Rock
TTITLE9=Robert Earl Keen, Daryl Singletary, David Lee Murphy - Merry Christmas
TTITLE9=From The Family
TTITLE10=Vince Vance and The Valiants - All I Want For Christmas is You
TTITLE11=Vince Vance and The Valiants - Christmas Just Ain't Christmas Without Y
TTITLE11=ou
EXTD=
EXTT0=
EXTT1=
EXTT2=
EXTT3=
EXTT4=
EXTT5=
EXTT6=
EXTT7=
EXTT8=
EXTT9=
EXTT10=
EXTT11=
PLAYORDER=
